<svg version="1.1" id="Layer_1" xmlns="http://www.w3.org/2000/svg" xmlns:xlink="http://www.w3.org/1999/xlink" x="0px" y="0px"
	 viewBox="0 0 126 187.2" enable-background="new 0 0 126 187.2" xml:space="preserve">
<g>
	<g>
		<path fill="#851619" d="M90.7,115.8c3.6,0.7,9.8-0.4,12.6-2.8c2.3-3.8,3.8-8.8,2.3-13.2c-1.1-3.3-2-7.7-4.6-10.1
			c-1.8-1.7-2.3-2.3-3.6-4.3c-1.2-1.7-2.6-3.1-4.9-2.6c-2.7,0.6-1.4,2.5-2.6,3.9c-0.3,0.4-1.4,0.2-1.8,0.6c-0.3,0.4-1.6,1.9-1.8,2.1
			c-1,0.8-2.4,1.1-3.5,2.1c-2.2,2-1.5,3.5-2.3,5.9c-0.5,1.5-2.1,2.3-2.3,4.2c-0.4,3.3,2.1,4.4,3.8,6.6
			C84.4,111.6,86.1,115,90.7,115.8z M8,105.9c1.2-3,3.7-5.1,6.6-6.4c1.9-0.9,3-1.2,4.4-2.3c2.3-1.8,4.1-2.8,7.2-2.5
			c-0.2-3.2,2.3-5.3,4.4-7.3c2.6-2.4,2.6-3.3,3-6.6c0.3-2.3,1.2-3.6,0.8-6.3c-0.2-1.1-0.2-1.5-0.3-2.5c-0.1-1.6,0.2-2.8-0.4-4.4
			c-0.7-2.1-3.2-3.8-3.8-5.7c-0.6-1.8,1.2-4.8,0.7-7.2C30,51.8,27.8,50,24.8,51c-4,1.3-5.9,5.5-8.8,8.2c-4.1,3.8-8.3,6-11.2,11.1
			c-4.8,8.3-5.5,18.5-4.4,27.9c0.2,2.1,0.9,4.2,1.1,6.2c0.2,3.2-0.9,7.2,2.8,9C7.3,113.8,7.4,107.4,8,105.9z M32.3,63.3
			c0.5-2.5,1.2-5,2.1-7.4c1.2-3,2.4-3.5,4.4-5.3c1.7-1.5,2.8-4.2,3.7-6.2c1.4-3.3,4.1-11.7,2-15c-1.9-3-11.7,4.1-13.8,5.7
			c-6,4.7-14.5,12.9-14.2,21.4c2.5-3.1,7.4-8.7,11.8-6.7c2.8,1.2,3.7,4.8,3.5,7.6C31.6,59.9,30,61.4,32.3,63.3z M119.6,63.3
			c1.2-1,2.8-1.8,3-3.3c0.3-2.1-1.4-3.1-2.8-2.3c-1.6,0.9-1.9,3.9-3.4,4.9c-0.5,0.3-1.6,0.3-2.2,0.4c-7.5,2.1-15.6,3-23.3,4.6
			c-8.1,1.6-8.2,11.4-11,18.1c-1.4,3.3-3.9,6.3-5.1,9.6c-0.4,1.1-0.6,1.5-0.7,1.5c0.1,0,0.2,0.2,0.2,1c0.1,1.3,0.9,2.7,1.2,4
			c1.1,4.9-0.2,6.1,5.5,8.7c0.5-2-2.7-3.9-3.4-5.8c-1.1-3.3,0.6-4.5,1.6-7.1c0.6-1.5,0.5-3.4,1.6-5c1.8-2.8,5.3-4.1,7.4-6.5
			c1.3-1.5,1.7-4.1,4.3-4.5c1.6-0.3,3.1,0.4,4.4,1.5c1.7,1.5,2.6,3.8,4.1,5.3c2.6,2.7,4.3,5.1,4.7,9c1.4-4.4,2.3-9.1,2.3-13.7
			c0-2.5-1.6-5.4-0.2-7.3c2-2.7,3.8-0.5,5.4,1c2,1.8,2.7,0.3,4,0.7c1.9,0.7,1.9,2.8,4.3,1.8c3.8-1.6-1.2-6.8-2.5-8.9
			c2.9-0.1,5.4,0.8,6.5-2C127.6,63.8,122.9,63.8,119.6,63.3z M74,96.7C73.9,96.6,73.9,96.7,74,96.7L74,96.7z M116.8,55.4
			C116.8,55.4,116.8,55.4,116.8,55.4c0-0.1,0-0.1,0-0.2C116.8,55.3,116.8,55.4,116.8,55.4z M85,54.1c-6.2,2.6-12.9,2.4-19.5,1.7
			c-2.4-0.3-3.3-1.2-5.3-0.1c-2.9,1.5-5,5.7-5.5,8.8c4.5-0.7,9,1.1,8.7,6.2c-0.4,6.9-5.5,9.8-11.3,11.7c-2.2,0.8-8.3,3.2-8.5,5.9
			c-0.2,1.9,2.7,4.2,4.2,4.9c1.3,0.6,4.3,1.3,5.5,0.4c0.4-0.3,0.7-1.7,1-2.1c2.4-3.1,4.8-5.7,9-5.8c-3.2,1.5-11.1,7.3-8.3,11.1
			c1.3,1.8,5.3,3.5,7.3,4.1c4.4,1.2,8.2,1.4,12.3,4c-0.1-3.4-2.4-6.8-1.7-9.6c1-4,4.9-8.1,6.5-12c1.6-3.8,1.9-7.7,3.4-11.5
			c1.6-4.1,3.8-5,7.9-5.5c6.6-0.8,13.1-2.6,19.6-3.8c1.3-0.3,4.6-0.3,5.6-1.2c2.7-2.5,2.9-11.2,2.1-14.3c-5.5-0.3-11,0-16.4,0.8
			c-3.5,0.5-7.4,1.2-10.6,2.8C88.9,51.8,87.1,53.2,85,54.1z M116.8,48.1c0.9,0.1,0.5,3.7,0.2,5.5c0,0,0,0,0,0c0,0,0,0.1,0,0.3
			c0-0.1,0-0.2,0-0.3c-0.1,0.5-0.1,0.9-0.1,0.9c0-0.2,0.1-0.4,0.1-0.5c0,0.1,0,0.3-0.1,0.5c0,0.1,0,0.2,0,0.3c0-0.1,0-0.2,0-0.3
			c0,0.1-0.1,0.5-0.1,0.9c0,0.1,0,0.1,0,0c-0.3,1.8-0.9,5.4-1.8,5.2C113.4,60.4,115.3,47.8,116.8,48.1z M21.5,17.3
			c5.8,1.2,13.1,7,15,12.7c1.9-1.1,4.3-2.4,6.5-2.5c2.7-0.1,2.2,0.2,2.7,2.5c1.4,7.2-1.7,15.5-5.4,21.5c2-2.6,4.1-5.2,6.3-7.6
			c0.8-0.8,4.1-2.9,4.5-3.9c0.2-0.5-0.4-1.8-0.5-2.3c-1.6-10.2-6.9-18.7-10.7-28.1c-0.8-1.9-1.4-3.9-1.5-6c0-0.3,0.4-2.5,0.2-2.7
			c-1-1.6-5.9-0.7-6.9,0.9c-2,3,2.7,11.7,3.8,15.1c-3.3-3.1-7.5-5.6-12-6.6c-3.7-0.8-15.7-0.6-11.7,6.2
			C13.9,20.4,17.8,16.6,21.5,17.3z M35,3c-3.4,0.8-3.9-1.2-0.5-2C37.8,0.2,38.9,2,35,3z M45.3,47.3c-1.1,1.2-3.3,5.1-4.6,5.5
			c-0.5,0.2-1.4-0.8-1.9-0.6c-2.8,1.2-3.8,4.9-4.5,7.6c-0.4,1.6-1,3.7-0.6,5.2c0.3,1.3,1.5,2.4,1.8,3.8c0.3,1.6-0.1,3.3,0,4.8
			c0.1,2.1,0.7,3,0.1,5.2c-0.3,1.2-0.5,2-0.7,3.1c-0.3,1.8-0.2,3.5-1.4,5c-2,2.4-5,2.9-5.8,6.6c1.2-1.5,2.8-2.8,4.4-3.7
			c1.3-0.8,2.8-1.4,4.3-1.7c1.4-0.3,4.5,0.4,5.6-0.1c1.7-0.8,3.5-3.8,5.1-4.9c2.1-1.5,5.8-2.2,6.4-4.1c0.3-1.2-0.7-3.8-0.8-5.1
			c-0.2-3.1-0.1-6.3,0.7-9.4c1.5-5.6,5.4-10.8,11-12.5c2.8-0.9,6.2-1.1,9.1-0.6c2.8,0.5,5.4,3.3,7.7,3c2.9-0.3,10.1-3.8,9.8-6.9
			c-0.5-4.2-7-8.3-10.2-9.9c-1.5-0.7-8.8-2.4-9.2-3.3c-0.3-0.7,0.6-3,0.8-3.7c1.4-4.6,4.2-9,8.9-10.7c3.4-1.2,7.1-0.7,10.4,0.3
			c2.6,0.8,7.4,0.7,6.1-4c-6.2-5.2-14.6-7-21.7-2.7c-3.4,2-6.4,4.9-8.6,8.2c-3.1,4.4-3.2,10.9-6.8,14.5c1.3-8.2,2.7-16.4,4.6-24.5
			c0.6-2.6,2.9-6.5,1.2-8.3c-1.4-1.6-5.7-2-7.2-0.5c-0.6,0.6-0.9,2.3-1.1,3c-2,6-3.4,12.2-4.3,18.5c-0.6,4.4-1.1,8.8-1.1,13.2
			c0,2.5,0.2,2.2-1.2,3.8C49.8,43.6,47.2,45.3,45.3,47.3z M95,17.6c1.9-1.8,3.6-0.6,1.4,1.5C94.4,21,93,19.5,95,17.6z M66.5,4
			c-0.2,1.5-6.4,0.5-6.2-0.9C60.5,1.6,66.7,2.5,66.5,4z M102.4,115.1c-1.9-0.4-5.7,1.7-7.9,1.9c-3.7,0.2-7.4-0.5-10.4-2.8
			c-2.1-1.7-3.6-2.7-5.7-4c0,0,0,0,0,0c0,0.3-0.1,0.6-0.1,0.9c-0.1,0.3-0.1,0.6-0.2,0.9c-0.1,0.3-0.1,0.6-0.2,0.9
			c-0.1,0.3-0.2,0.6-0.3,0.9c-0.1,0.3-0.2,0.6-0.3,0.9c0,0.1-0.1,0.3-0.1,0.4c-0.1,0.1-0.1,0.3-0.2,0.4c-0.1,0.3-0.2,0.5-0.3,0.8
			c-0.1,0.3-0.2,0.5-0.3,0.8c0,0.1-0.1,0.3-0.1,0.4l-0.1,0.2l-0.1,0.2c-0.1,0.1-0.1,0.3-0.2,0.4c-0.1,0.1-0.1,0.3-0.2,0.4
			c-0.3,0.5-0.6,1-0.9,1.4c-0.3,0.4-0.7,0.8-1,1.2c-0.3,0.4-0.6,0.7-0.9,1.1c-0.1,0.2-0.3,0.4-0.4,0.5c-0.1,0.2-0.3,0.3-0.4,0.5
			c-0.3,0.3-0.5,0.7-0.7,1c-0.1,0.2-0.2,0.3-0.3,0.5c-0.1,0.2-0.2,0.3-0.3,0.4c-0.2,0.3-0.4,0.6-0.6,0.8c-0.4,0.5-0.6,1-0.9,1.3
			c-0.5,0.7-0.8,1.1-0.9,1c-0.1-0.1,0-0.5,0.3-1.3c0.2-0.4,0.4-0.9,0.7-1.4c0.2-0.3,0.3-0.6,0.5-0.9c0.2-0.3,0.4-0.6,0.6-0.9
			c0.1-0.2,0.3-0.4,0.4-0.6c0,0-0.1,0-0.1,0c-0.3,0-0.8,0.1-1.4,0.2c-0.6,0.1-1.2,0.3-1.9,0.6c-0.3,0.1-0.7,0.3-1,0.4
			c-0.1,0-0.2,0.1-0.2,0.1c0,0-0.1,0-0.1,0.1l-0.1,0.1c-0.1,0.1-0.2,0.1-0.3,0.2c-0.1,0.1-0.2,0.1-0.3,0.2c-0.8,0.5-1.7,0.8-2.7,1.1
			c-1,0.3-1.9,0.6-2.9,1c-0.5,0.2-1,0.4-1.5,0.6c-0.5,0.2-1,0.5-1.5,0.7c-0.9,0.5-1.8,1.1-2.4,1.9c-0.3,0.4-0.6,0.8-0.8,1.2
			c-0.2,0.4-0.4,0.8-0.5,1.2l0,0.1l0,0c0,0,0,0,0,0c0,0,0,0,0,0l0,0l0,0l0,0.2c0,0.1-0.1,0.2-0.1,0.3c-0.1,0.2-0.2,0.4-0.3,0.6
			c-0.2,0.4-0.5,0.8-0.7,1.1c-0.2,0.2-0.3,0.3-0.5,0.5c-0.1,0.1-0.2,0.1-0.2,0.2c-0.1,0.1-0.2,0.1-0.3,0.2l-0.1,0.1
			c0,0-0.1,0-0.1,0.1c-0.1,0-0.2,0.1-0.3,0.1c-0.2,0.1-0.4,0.2-0.5,0.2c-0.7,0.3-1.4,0.4-1.9,0.6c-0.5,0.2-0.9,0.5-1.2,0.7
			c-0.1,0.1-0.3,0.2-0.4,0.3c-0.1,0.1-0.2,0.2-0.3,0.3c-0.1,0.1-0.2,0.2-0.3,0.2c0,0,0-0.1,0.1-0.3c0-0.1,0.1-0.2,0.2-0.3
			c0.1-0.1,0.2-0.3,0.3-0.4c0.3-0.3,0.7-0.6,1.3-0.9c0.6-0.3,1.2-0.4,1.8-0.7c0.3-0.1,0.6-0.3,0.9-0.5c0.1-0.1,0.3-0.2,0.4-0.3
			c0.1-0.1,0.1-0.1,0.2-0.2c0.1-0.1,0.1-0.1,0.2-0.2l0.1-0.1l0.1-0.1c0.1-0.1,0.1-0.2,0.2-0.2c0-0.1,0.1-0.2,0.1-0.3l0.1-0.1
			l0.1-0.1c0-0.1,0.1-0.2,0.1-0.3c0-0.1,0.1-0.2,0.1-0.3l0.1-0.1l0-0.2c0-0.1,0.1-0.2,0.1-0.3c0.3-0.9,0.7-1.8,1.4-2.6
			c0.7-0.8,1.6-1.6,2.6-2.1c0.5-0.3,1-0.5,1.5-0.8c0.5-0.2,1-0.5,1.5-0.6c1-0.4,2-0.7,2.9-1c0.9-0.3,1.8-0.7,2.5-1.1
			c0.2-0.1,0.4-0.2,0.5-0.3c0.1-0.1,0.2-0.1,0.3-0.2c0.1-0.1,0.2-0.1,0.3-0.2c0.4-0.2,0.8-0.3,1.1-0.5c0.7-0.3,1.4-0.4,2-0.6
			c0.6-0.1,1.2-0.2,1.7-0.1c0.1,0,0.3,0,0.4,0.1c0,0,0.1,0,0.1,0c0.1-0.1,0.2-0.3,0.3-0.4c0.1-0.2,0.3-0.4,0.4-0.5
			c0.3-0.4,0.6-0.7,0.9-1.1c0.2-0.2,0.3-0.4,0.5-0.6c0.1-0.2,0.3-0.4,0.4-0.6c0.3-0.4,0.5-0.8,0.8-1.3c0.1-0.2,0.2-0.5,0.3-0.7
			c0.1-0.2,0.2-0.5,0.3-0.7l0-0.1c0,0,0-0.1,0-0.1l0,0l0.1-0.2c0.1-0.1,0.1-0.3,0.2-0.4c0.1-0.3,0.2-0.5,0.3-0.8
			c0.1-0.3,0.2-0.5,0.3-0.8c0.1-0.3,0.2-0.5,0.3-0.8c0.4-1.1,0.6-2.2,0.7-3.3c0-0.1,0-0.3,0.1-0.4c0-0.1,0-0.2,0-0.3
			c-0.4-0.2-0.7-0.5-1-0.7c-0.1,0.7-0.2,1.4-0.3,2c-0.1,0.5-0.2,1-0.3,1.4c0,0.1,0,0.2-0.1,0.3l0,0.1c0,0,0,0,0,0.1l0,0l0,0.2
			c-0.1,0.2-0.1,0.4-0.2,0.6c-0.2,0.8-0.5,1.7-0.8,2.4c-0.5,1.5-1.1,2.7-1.8,3.7c-0.6,0.9-1.3,1.6-1.8,1.9c-0.5,0.3-0.8,0.4-0.9,0.4
			c0-0.1,0.2-0.2,0.6-0.6c0.4-0.4,1-1,1.5-1.9c0.5-0.9,1-2.1,1.5-3.5c0.2-0.7,0.4-1.5,0.7-2.3c0.1-0.2,0.1-0.4,0.2-0.6
			c0-0.1,0.1-0.2,0.1-0.3c0-0.1,0-0.2,0.1-0.3c0.1-0.5,0.2-0.9,0.2-1.4c0.1-0.9,0.3-1.8,0.3-2.8c-1.3-1.1-2.5-2.4-3.9-3.3
			c-1.4-0.8-3.1-1.4-4.7-1.8c-2-0.5-4.7,0.2-6.3-0.4c-0.9-0.3-2.2-2-2.9-2.6c-1-0.7-3.9-1.4-4.4-2.1c-0.4-0.5,0.1-2.2-0.4-2.6
			c-0.2-0.2-1.8,0.2-2.1,0.1c-3.6-0.7-6.6-1.4-8.2-5.3c-4-1.4-8.4-0.4-11.6,2.3c-1.3,1.1-2.6,4.1-3.8,4.7c-0.4,0.2-1.5-0.5-2-0.3
			c-1.4,0.3-2.3,0.2-3.6,1.1c-1,0.7-1.5,2.1-2.4,2.6c-1.4,0.8-3.3,0.8-4.8,1.8c-2.8,1.8-4.4,4.4-5.5,7.4c-1.3,3.7-4.5,6.9-4.4,10.7
			c0.1,7.2,5.4,13.3,9.2,18.8c2.2,3.2,4,6.7,6.1,10c3.2,5,6.5,10.4,10.7,14.6c3.2,3.2,6.7,6,9.5,9.6c3,3.8,4.4,6.4,9,9.2
			c4.5,2.7,9.5,4.3,14.7,4.8c5.8,0.5,11.5-0.2,15.4-4.8c3.5-4.1,7.2-8.2,10.2-12.8c5.4-8.6,8.9-19.3,13-28.6
			c1.1-2.6,2.5-5.1,3.4-7.8C106.8,129.1,107.3,116,102.4,115.1z M53.4,118.8c0.1-0.2,0.3-0.1,0.7,0c0.4,0.2,0.8,0.6,1.2,1
			c0.2,0.2,0.4,0.4,0.6,0.5c0.2,0.2,0.4,0.3,0.5,0.4c0.3,0.2,0.4,0.4,0.3,0.6c-0.2,0.3-0.5,0.3-0.9,0.1c-0.2-0.1-0.3-0.3-0.5-0.5
			c-0.2-0.2-0.4-0.4-0.6-0.6c-0.4-0.4-0.7-0.7-1-1C53.5,119.1,53.3,119,53.4,118.8z M46.5,125.9c0.3-0.2,0.8-0.6,1.4-0.9
			c0.1,0,0.2-0.1,0.3-0.1c0.1,0,0.2-0.1,0.3-0.1c0.1,0,0.2-0.1,0.3-0.1c0.1,0,0.2,0,0.3-0.1c0.2,0,0.5-0.1,0.7-0.1
			c0.2,0,0.5,0,0.7,0c0.2,0,0.5,0,0.7,0c0.2,0,0.5,0,0.7,0c0.5-0.1,1-0.2,1.5-0.4c0.5-0.2,0.9-0.5,1.4-0.7c0.1-0.1,0.2-0.1,0.3-0.2
			c0.1-0.1,0.2-0.1,0.4-0.2c0.1-0.1,0.3-0.1,0.4-0.2c0.1-0.1,0.3-0.1,0.4-0.1c0.1-0.1,0.3-0.1,0.4-0.1c0.1,0,0.3,0,0.4,0
			c0.1,0,0.3,0,0.4,0c0.1,0,0.3,0,0.4,0.1c0.5,0.1,0.9,0.3,1.2,0.5c0.6,0.3,1.1,0.6,1.5,0.8c0.2,0.1,0.3,0.2,0.4,0.2
			c0.1,0.1,0.1,0.1,0.1,0.2c0,0.1-0.1,0.2-0.2,0.2c-0.1,0-0.3,0-0.5,0c-0.4-0.1-1-0.3-1.7-0.7c-0.3-0.2-0.7-0.3-1-0.4
			c-0.4-0.1-0.7-0.1-1.1-0.1c-0.1,0-0.2,0.1-0.3,0.1c-0.1,0-0.2,0.1-0.3,0.1c-0.1,0-0.2,0.1-0.3,0.2l-0.2,0.1l-0.2,0.1
			c-0.2,0.1-0.5,0.3-0.7,0.4c-0.2,0.1-0.5,0.3-0.8,0.4c-0.6,0.2-1.1,0.4-1.7,0.4c-0.1,0-0.3,0-0.4,0c-0.1,0-0.1,0-0.2,0
			c-0.1,0-0.1,0-0.2,0c-0.3,0-0.5,0-0.8,0c-0.2,0-0.5,0-0.7,0c-0.2,0-0.4,0-0.6,0c-0.1,0-0.2,0-0.3,0c-0.1,0-0.2,0-0.3,0.1
			c-0.1,0-0.2,0-0.3,0.1c-0.1,0-0.2,0.1-0.2,0.1c-0.6,0.3-1.1,0.5-1.5,0.7c-0.4,0.2-0.6,0.2-0.6,0.2
			C46.1,126.4,46.2,126.2,46.5,125.9z M40.6,130.6c-0.4,0.1-0.7,0.3-1,0.5c-0.3,0.2-0.5,0.4-0.8,0.6c-0.2,0.2-0.4,0.3-0.6,0.4
			c-0.3,0.2-0.5,0.4-0.6,0.3c-0.1-0.1,0-0.3,0.3-0.6c0.1-0.2,0.3-0.3,0.5-0.5c0.2-0.2,0.4-0.4,0.7-0.7c0.3-0.2,0.7-0.5,1.1-0.7
			c0.4-0.2,0.9-0.3,1.5-0.4c0.1,0,0.3,0,0.4,0c0.1,0,0.1,0,0.2,0l0.1,0c0,0,0.1,0,0.2,0c0.3,0,0.5,0.1,0.8,0.1
			c0.5,0.1,1.1,0.2,1.6,0.2c0.3,0,0.6,0.1,0.8,0.1c0.1,0,0.3,0,0.4,0c0.1,0,0.2,0,0.4,0c0.5-0.1,0.9-0.2,1.4-0.4
			c0.4-0.2,0.9-0.4,1.4-0.5c0.1,0,0.2-0.1,0.3-0.1c0.1,0,0.1,0,0.2,0c0.1,0,0.1,0,0.1,0l0.1,0c0.1,0,0.2,0,0.3,0c0.1,0,0.2,0,0.3,0
			c0.4,0,0.8,0,1.1,0.1c0.3,0,0.6,0.1,0.8,0.1c0.1,0,0.2,0,0.3,0c0.1,0,0.1,0,0.2,0c0.1,0,0.2,0.1,0.2,0.1c0,0.1,0,0.2-0.1,0.2
			c-0.1,0-0.1,0.1-0.2,0.1c-0.1,0-0.2,0.1-0.3,0.1c-0.1,0-0.2,0-0.4,0c-0.1,0-0.3,0-0.4,0c-0.3,0-0.6,0-1,0c-0.2,0-0.4,0-0.6,0
			c0,0-0.1,0-0.1,0l0,0c0,0,0,0,0,0l0,0l-0.1,0c-0.1,0-0.2,0-0.3,0.1c-0.1,0-0.2,0.1-0.3,0.1c-0.1,0-0.2,0.1-0.3,0.1
			c-0.1,0-0.2,0.1-0.3,0.1c-0.1,0-0.2,0.1-0.3,0.1c-0.5,0.2-1,0.4-1.6,0.4c-0.2,0-0.3,0-0.5,0c-0.2,0-0.3,0-0.4,0
			c-0.1,0-0.3,0-0.4,0c-0.1,0-0.3,0-0.4,0c-0.6-0.1-1.2-0.2-1.7-0.2c-0.3,0-0.5-0.1-0.8-0.1l-0.1,0c0,0,0,0-0.1,0
			c-0.1,0-0.1,0-0.2,0c-0.1,0-0.2,0-0.4,0C41.4,130.3,41,130.4,40.6,130.6z M47.9,157.1c-0.4,0.2-0.8,0.3-1.2,0.6
			c-0.2,0.1-0.4,0.2-0.6,0.3c-0.1,0.1-0.2,0.1-0.3,0.2c0,0,0,0-0.1,0l0,0c0,0,0,0-0.1,0.1l-0.2,0.1c-0.2,0.1-0.4,0.3-0.5,0.4
			c-0.2,0.1-0.3,0.3-0.5,0.4c-0.2,0.1-0.3,0.3-0.4,0.5c-0.1,0.1-0.1,0.2-0.2,0.2c-0.1,0.1-0.1,0.2-0.2,0.2c0,0.1-0.1,0.2-0.1,0.2
			c0,0.1-0.1,0.2-0.1,0.2c-0.1,0.2-0.1,0.3-0.1,0.5c-0.1,0.3-0.1,0.6-0.1,0.9c0,0.3-0.1,0.6-0.2,0.8c-0.1,0.2-0.3,0.4-0.5,0.5
			c-0.1,0.1-0.2,0.1-0.2,0.1c-0.1,0-0.1,0-0.2,0c-0.1,0-0.2,0-0.2,0c0,0,0-0.1,0.1-0.2c0,0,0.1-0.1,0.1-0.1c0,0,0.1-0.1,0.1-0.1
			c0.1-0.1,0.2-0.2,0.2-0.4c0.1-0.2,0.1-0.4,0.1-0.7c0-0.3,0-0.6,0.1-1c0-0.1,0-0.2,0.1-0.3c0,0,0-0.1,0-0.1c0,0,0-0.1,0.1-0.1
			c0-0.1,0.1-0.2,0.1-0.3c0-0.1,0.1-0.2,0.1-0.3c0,0,0.1-0.1,0.1-0.1c0,0,0.1-0.1,0.1-0.1c0.1-0.1,0.1-0.2,0.2-0.3
			c0.1-0.2,0.3-0.4,0.4-0.5c0.3-0.3,0.7-0.7,1.1-0.9l0.2-0.1l0,0c0,0,0,0,0,0c0,0,0,0,0,0l0.1-0.1c0.1-0.1,0.2-0.2,0.3-0.2
			c0.2-0.1,0.4-0.3,0.6-0.4c0.4-0.2,0.8-0.5,1.2-0.6c0.8-0.4,1.5-0.7,2.2-0.8c0.4-0.1,0.7-0.1,1-0.1c0.3,0,0.6,0.1,0.8,0.3
			c0.1,0.1,0.2,0.2,0.2,0.2c0,0.1,0.1,0.1,0.1,0.2c0,0.1,0,0.2-0.1,0.2c-0.2,0.1-0.4,0-0.6-0.1c-0.1,0-0.3,0-0.5,0
			c-0.2,0-0.5,0-0.8,0.1C49.4,156.5,48.7,156.7,47.9,157.1z M59.1,174.9c-0.3-0.1-0.6-0.2-1-0.3c-0.2-0.1-0.4-0.2-0.6-0.3
			c-0.2-0.1-0.4-0.2-0.7-0.3c-0.1-0.1-0.2-0.1-0.4-0.2c-0.1-0.1-0.2-0.1-0.4-0.2c-0.1-0.1-0.2-0.1-0.4-0.2c-0.1-0.1-0.2-0.2-0.4-0.3
			c-0.1-0.1-0.2-0.2-0.4-0.3c-0.1-0.1-0.2-0.2-0.4-0.3c-0.1-0.1-0.2-0.2-0.4-0.3c-0.1-0.1-0.2-0.2-0.3-0.4c-0.1-0.1-0.2-0.2-0.3-0.4
			c-0.1-0.1-0.2-0.2-0.3-0.3c-0.2-0.2-0.5-0.5-0.8-0.7c-0.5-0.5-1.1-1-1.6-1.6c-0.2-0.3-0.5-0.7-0.6-1c-0.2-0.3-0.3-0.7-0.4-1.1
			c0-0.4,0-0.8,0.1-1.1c0.1-0.3,0.2-0.7,0.3-1c0.1-0.3,0.2-0.6,0.3-0.8c0.1-0.3,0.1-0.5,0.1-0.8c0-0.5,0-1.1,0-1.5
			c0-0.5,0-1,0.1-1.4c0.1-0.4,0.2-0.8,0.3-1c0.1-0.1,0.2-0.2,0.2-0.3c0.1-0.1,0.1-0.2,0.2-0.2c0.1-0.1,0.2-0.1,0.3-0.1
			c0.1,0,0.1,0.2,0.1,0.3c0,0.1-0.1,0.3-0.1,0.6c-0.1,0.2-0.1,0.5-0.2,0.9c0,0.3,0,0.8,0,1.2c0,0.5,0.1,1,0,1.6c0,0.1,0,0.3,0,0.5
			c0,0.2-0.1,0.3-0.1,0.5c-0.1,0.3-0.2,0.6-0.3,0.9c-0.2,0.6-0.5,1.2-0.5,1.8c0,0.3,0.1,0.6,0.2,0.9c0.1,0.3,0.3,0.6,0.5,0.9
			c0.4,0.6,1,1,1.5,1.5c0.3,0.2,0.5,0.5,0.8,0.7c0.1,0.1,0.2,0.2,0.4,0.4c0.1,0.1,0.2,0.2,0.3,0.4c0.1,0.1,0.2,0.2,0.3,0.3
			c0.1,0.1,0.2,0.2,0.3,0.3c0.1,0.1,0.2,0.2,0.3,0.3c0.1,0.1,0.2,0.2,0.3,0.3c0.1,0.1,0.2,0.2,0.3,0.3c0.1,0.1,0.2,0.2,0.3,0.2
			c0.1,0.1,0.2,0.1,0.3,0.2c0.1,0.1,0.2,0.1,0.3,0.2c0.4,0.3,0.8,0.4,1.2,0.6c0.4,0.2,0.7,0.3,0.9,0.5c0.5,0.3,0.8,0.4,0.7,0.5
			C60,175.1,59.7,175.1,59.1,174.9z M55.6,153.3c0,0,0-0.1,0.1-0.1c0-0.1,0.1-0.2,0.1-0.3c0.2-0.4,0.3-0.7,0.5-0.9
			c0.2-0.2,0.3-0.4,0.5-0.6c0,0,0.1,0,0.1,0c0,0,0.1,0,0.1,0c0,0,0.1,0,0.1,0c0.1,0,0.1,0.1,0.1,0.1c0,0.1,0,0.1,0,0.1
			c0,0-0.1,0.1-0.1,0.1c0,0.1-0.1,0.3-0.2,0.5c-0.1,0.3-0.2,0.6-0.3,0.9c0,0.1-0.1,0.2-0.1,0.3c0,0,0,0.1,0,0.1l0,0.1c0,0,0,0,0,0.1
			l0,0.1c-0.1,0.2-0.2,0.4-0.3,0.6c-0.4,0.8-0.8,1.9-1,3.1c-0.1,0.6-0.1,1.2-0.1,1.9c0,0.7,0.1,1.3,0.2,2c0.3,1.4,0.7,2.7,1.1,3.8
			c0.4,1.2,0.9,2.2,1.2,3.1c0.7,1.7,1.1,2.9,0.9,2.9c-0.2,0.1-0.7-0.9-1.5-2.6c-0.4-0.8-0.9-1.9-1.3-3c-0.5-1.2-0.9-2.5-1.2-3.9
			c0-0.2-0.1-0.4-0.1-0.5c0-0.2-0.1-0.4-0.1-0.5c0-0.4-0.1-0.7-0.1-1.1c0-0.2,0-0.3,0-0.5c0-0.2,0-0.3,0-0.5c0-0.1,0-0.2,0-0.3
			c0-0.1,0-0.2,0-0.2c0-0.2,0-0.3,0-0.5c0.2-1.3,0.6-2.4,1-3.3C55.3,153.8,55.4,153.6,55.6,153.3L55.6,153.3
			C55.6,153.3,55.6,153.3,55.6,153.3C55.6,153.3,55.6,153.3,55.6,153.3C55.6,153.3,55.6,153.3,55.6,153.3z M62.3,166.2
			c-0.3,0-0.8-0.1-1.3-0.3c-0.1,0-0.2-0.1-0.4-0.1c-0.1-0.1-0.2-0.1-0.4-0.2c-0.1,0-0.1-0.1-0.2-0.1c-0.1,0-0.1-0.1-0.2-0.1
			l-0.1-0.1c-0.1,0-0.2-0.1-0.2-0.1c-0.3-0.2-0.4-0.3-0.5-0.5c-0.1-0.1-0.3-0.2-0.4-0.3l0,0l0,0c-0.3-0.2-0.6-0.3-0.8-0.4
			c-0.2-0.1-0.4-0.1-0.6,0c-0.3,0.1-0.6,0.2-0.7,0.1c-0.1-0.1-0.2-0.2-0.1-0.4c0.1-0.1,0.2-0.3,0.5-0.4c0.2-0.1,0.3-0.1,0.5-0.1
			c0.2,0,0.4,0,0.6,0.1c0.4,0.1,0.7,0.4,1.1,0.6l0,0c0.2,0.1,0.4,0.3,0.5,0.4c0.1,0.2,0.3,0.3,0.4,0.4l0.1,0c0,0,0,0,0.1,0l0,0l0,0
			l0,0l0,0c0,0,0.1,0,0.1,0l0.1,0.1c0.1,0.1,0.2,0.1,0.3,0.2c0.1,0.1,0.2,0.1,0.3,0.2c0.1,0,0.2,0.1,0.3,0.1
			c0.4,0.1,0.8,0.2,1.1,0.3c0.7,0.2,1.1,0.4,1,0.6C63.4,166.3,63,166.3,62.3,166.2z M66.9,137.7c0,0.1,0,0.1-0.1,0.2
			c0,0.1-0.1,0.1-0.2,0.2c-0.1,0.2-0.3,0.4-0.6,0.6c-0.2,0.2-0.5,0.4-0.8,0.6c-0.1,0.1-0.2,0.1-0.2,0.2c0,0-0.1,0.1-0.1,0.1l-0.1,0
			c0,0,0,0,0,0c-0.1,0.1-0.3,0.3-0.4,0.4c-0.1,0.2-0.3,0.3-0.4,0.5c-0.1,0.1-0.1,0.2-0.2,0.3c-0.1,0.1-0.1,0.2-0.2,0.3
			c-0.6,0.8-1.1,1.7-1.5,2.7c-0.5,1-0.9,2-1.1,2.9c-0.3,0.9-0.4,1.7-0.5,2.4c-0.2,1.4-0.1,2.3-0.2,2.3c-0.1,0-0.3-0.9-0.1-2.3
			c0.1-0.7,0.2-1.6,0.5-2.5c0.3-0.9,0.6-1.9,1.1-2.9c0.5-1,1-2,1.5-2.8c0.1-0.2,0.3-0.4,0.4-0.6c0.1-0.1,0.1-0.2,0.2-0.3
			c0.1-0.1,0.2-0.2,0.2-0.3c0.1-0.2,0.3-0.3,0.5-0.5c0,0,0.1-0.1,0.1-0.1c0,0,0.1-0.1,0.1-0.1c0.1-0.1,0.2-0.1,0.2-0.2
			c0.6-0.4,1.1-0.8,1.5-1.1c0.1-0.1,0.1-0.1,0.2-0.2c0.1-0.1,0.1-0.1,0.2-0.1c0.1-0.1,0.1-0.1,0.2-0.1
			C66.9,137.5,66.9,137.6,66.9,137.7z M67.3,133.2c0,0.1,0,0.3-0.1,0.4c-0.1,0.3-0.2,0.7-0.3,1.1c-0.2,0.4-0.4,1-0.8,1.5
			c-0.2,0.3-0.4,0.5-0.6,0.8c-0.2,0.3-0.5,0.5-0.7,0.8c-0.5,0.5-1,1-1.6,1.6c-0.5,0.6-1.1,1.1-1.6,1.8c-0.1,0.2-0.2,0.3-0.4,0.5
			c-0.1,0.2-0.2,0.3-0.4,0.5c-0.1,0.2-0.2,0.4-0.3,0.5c-0.1,0.2-0.2,0.4-0.3,0.5c-0.9,1.5-1.6,3-2.3,4.3c-0.7,1.3-1.4,2.5-2,3.5
			c-0.6,1-1.3,1.7-1.7,2.2c-0.5,0.5-0.8,0.7-0.9,0.6c-0.1-0.1,0-0.4,0.3-0.9c0.3-0.5,0.8-1.3,1.4-2.2c0.6-1,1.2-2.1,1.8-3.5
			c0.7-1.3,1.4-2.8,2.3-4.4c0.1-0.2,0.2-0.4,0.3-0.6c0.1-0.2,0.2-0.4,0.3-0.6c0.1-0.2,0.2-0.4,0.4-0.5c0.1-0.2,0.3-0.4,0.4-0.5
			c0.1-0.1,0.1-0.2,0.2-0.3c0.1-0.1,0.1-0.2,0.2-0.3c0.1-0.2,0.3-0.3,0.4-0.5c0.3-0.3,0.5-0.6,0.8-0.9c0.5-0.6,1-1.1,1.5-1.6
			c0.2-0.3,0.5-0.5,0.7-0.7c0.1-0.1,0.2-0.2,0.3-0.4c0-0.1,0.1-0.1,0.1-0.2c0-0.1,0.1-0.1,0.1-0.2c0.3-0.4,0.5-0.8,0.7-1.2
			c0.2-0.4,0.4-0.8,0.5-1.1c0.2-0.3,0.3-0.5,0.5-0.7c0.1-0.1,0.3-0.2,0.4-0.2c0.1,0.1,0.2,0.2,0.2,0.4
			C67.4,133,67.4,133.1,67.3,133.2z M71.4,143c0,0.1-0.1,0.2-0.1,0.2c-0.1,0.2-0.2,0.3-0.2,0.5c-0.2,0.3-0.3,0.6-0.4,0.8
			c0,0.1,0,0.1,0,0.2c0,0.1,0,0.1,0,0.2c0,0.1,0,0.3,0,0.4c0,0.1,0,0.3,0,0.4c0,0.1,0,0.3,0,0.4c0.1,1,0.2,1.9,0.3,2.5
			c0,0.3,0,0.5,0,0.7c0,0.2,0,0.2-0.1,0.2c0,0-0.1-0.1-0.2-0.2c-0.1-0.1-0.1-0.4-0.2-0.6c-0.1-0.6-0.3-1.4-0.5-2.4
			c0-0.1,0-0.3-0.1-0.4c0-0.1,0-0.3,0-0.4c0-0.1,0-0.3,0-0.5c0,0,0-0.1,0-0.1l0-0.1c0-0.1,0-0.2,0-0.3c0.1-0.4,0.2-0.7,0.4-1
			c0.1-0.1,0.2-0.3,0.2-0.4c0-0.1,0.1-0.1,0.1-0.2l0.1-0.1l0,0l0,0c0.2-0.6,0.2-1.3,0.1-2c-0.1-0.7-0.3-1.4-0.6-2.2l-0.1-0.3
			c0,0,0,0,0-0.1l0,0l0-0.1l0-0.1c-0.1-0.2-0.1-0.4-0.2-0.5c-0.1-0.4-0.3-0.7-0.5-1.1c-0.3-0.7-0.6-1.4-0.8-2.2
			c-0.1-0.4-0.1-0.7-0.2-1.1c0-0.2,0-0.4,0-0.5c0-0.1,0-0.2,0-0.3l0-0.1c0,0,0-0.1,0-0.1l0-0.1c0.1-0.7,0.4-1.3,0.6-1.8
			c0.3-0.5,0.6-0.9,0.9-1.3c0.3-0.3,0.6-0.6,0.8-0.8c0.5-0.4,0.8-0.6,0.9-0.6c0.2,0.1,0,0.4-0.3,0.9c-0.3,0.5-0.9,1.2-1.4,2.1
			c-0.2,0.4-0.5,1-0.6,1.5c0,0.1,0,0.1,0,0.2c0,0,0,0,0,0.1l0,0.1c0,0.2,0,0.3,0,0.5c0,0.2,0,0.3,0,0.5c0,0.2,0,0.3,0.1,0.5
			c0.1,0.7,0.4,1.3,0.7,2c0.1,0.4,0.3,0.7,0.4,1.1c0.1,0.2,0.1,0.4,0.2,0.6c0,0.1,0.1,0.2,0.1,0.3l0,0l0,0.1l0.1,0.1
			c0.4,0.8,0.6,1.6,0.7,2.3c0.1,0.8,0.1,1.6-0.1,2.3l0,0.1C71.5,142.9,71.5,142.9,71.4,143z M76.9,153.2c-0.1,0-0.2-0.1-0.4-0.3
			c-0.1-0.2-0.3-0.5-0.5-0.9c-0.1-0.2-0.2-0.4-0.4-0.6c-0.1-0.1-0.1-0.2-0.2-0.3c0-0.1-0.1-0.1-0.1-0.2c0-0.1-0.1-0.1-0.1-0.2
			c-0.3-0.5-0.7-1-1.1-1.5c-0.4-0.5-0.9-1-1.3-1.5c-0.1-0.1-0.2-0.2-0.3-0.3c-0.1-0.1-0.2-0.2-0.3-0.3c-0.2-0.2-0.3-0.5-0.4-0.7
			c-0.2-0.4-0.3-0.9-0.3-1.2c0-0.3,0.2-0.5,0.3-0.4c0.2,0,0.3,0.2,0.4,0.4c0.1,0.2,0.2,0.5,0.4,0.8c0.1,0.2,0.2,0.4,0.4,0.6
			c0.1,0.2,0.3,0.4,0.5,0.6c0.4,0.5,0.8,1,1.2,1.5c0.4,0.5,0.8,1.1,1.2,1.6c0.2,0.2,0.3,0.5,0.4,0.7c0.1,0.2,0.2,0.5,0.3,0.7
			c0.1,0.2,0.2,0.4,0.2,0.6c0,0.2,0.1,0.3,0.1,0.4C77,153,77,153.2,76.9,153.2z"/>
	</g>
</g>
</svg>
